<mxfile modified="2021-11-18T00:04:21.770Z" host="app.diagrams.net" agent="5.0 (Windows NT 10.0; Win64; x64) AppleWebKit/537.36 (KHTML, like Gecko) Chrome/96.0.4664.45 Safari/537.36" etag="_MGAifbLV6jdHBs4YiIs" version="15.7.1" type="github">
  <diagram id="f106602c-feb2-e66a-4537-3a34d633f6aa" name="Page-1">
    <mxGraphModel dx="1673" dy="896" grid="1" gridSize="10" guides="1" tooltips="1" connect="1" arrows="1" fold="1" page="1" pageScale="1" pageWidth="1169" pageHeight="827" background="none" math="0" shadow="0">
      <root>
        <mxCell id="0" />
        <mxCell id="1" parent="0" />
        <mxCell id="14" value="&lt;b&gt;Google &lt;/b&gt;Cloud Platform" style="fillColor=#F6F6F6;strokeColor=none;shadow=0;gradientColor=none;fontSize=14;align=left;spacing=10;fontColor=#717171;9E9E9E;verticalAlign=top;spacingTop=-4;fontStyle=0;spacingLeft=40;html=1;" parent="1" vertex="1">
          <mxGeometry x="20" y="99" width="1070" height="501" as="geometry" />
        </mxCell>
        <mxCell id="15" value="" style="shape=mxgraph.gcp2.google_cloud_platform;fillColor=#F6F6F6;strokeColor=none;shadow=0;gradientColor=none;" parent="14" vertex="1">
          <mxGeometry width="23" height="20" relative="1" as="geometry">
            <mxPoint x="20" y="10" as="offset" />
          </mxGeometry>
        </mxCell>
        <mxCell id="jBB3iKR9src9GKSUZVXM-1004" value="" style="strokeColor=#dddddd;shadow=1;strokeWidth=1;rounded=1;absoluteArcSize=1;arcSize=2;" vertex="1" parent="14">
          <mxGeometry x="70" y="181" width="188.19" height="52.94" as="geometry" />
        </mxCell>
        <mxCell id="jBB3iKR9src9GKSUZVXM-1005" value="&lt;font color=&quot;#000000&quot;&gt;function_data_ingestion&lt;/font&gt;&lt;br&gt;Cloud Functions&lt;br&gt;Trigger type: Bucket" style="sketch=0;dashed=0;connectable=0;html=1;fillColor=#5184F3;strokeColor=none;shape=mxgraph.gcp2.hexIcon;prIcon=cloud_functions;part=1;labelPosition=right;verticalLabelPosition=middle;align=left;verticalAlign=middle;spacingLeft=5;fontColor=#999999;fontSize=12;" vertex="1" parent="jBB3iKR9src9GKSUZVXM-1004">
          <mxGeometry y="0.5" width="44" height="39" relative="1" as="geometry">
            <mxPoint x="5" y="-19.5" as="offset" />
          </mxGeometry>
        </mxCell>
        <mxCell id="jBB3iKR9src9GKSUZVXM-1008" value="" style="strokeColor=#dddddd;shadow=1;strokeWidth=1;rounded=1;absoluteArcSize=1;arcSize=2;" vertex="1" parent="14">
          <mxGeometry x="440" y="161" width="204.94" height="54.2" as="geometry" />
        </mxCell>
        <mxCell id="jBB3iKR9src9GKSUZVXM-1009" value="&lt;font color=&quot;#000000&quot;&gt;function_data_conversion&lt;/font&gt;&lt;br&gt;Cloud Functions&lt;br&gt;Trigger type: HTTP" style="sketch=0;dashed=0;connectable=0;html=1;fillColor=#5184F3;strokeColor=none;shape=mxgraph.gcp2.hexIcon;prIcon=cloud_functions;part=1;labelPosition=right;verticalLabelPosition=middle;align=left;verticalAlign=middle;spacingLeft=5;fontColor=#999999;fontSize=12;" vertex="1" parent="jBB3iKR9src9GKSUZVXM-1008">
          <mxGeometry y="0.5" width="44" height="39" relative="1" as="geometry">
            <mxPoint x="5" y="-19.5" as="offset" />
          </mxGeometry>
        </mxCell>
        <mxCell id="jBB3iKR9src9GKSUZVXM-1006" value="" style="strokeColor=#dddddd;shadow=1;strokeWidth=1;rounded=1;absoluteArcSize=1;arcSize=2;" vertex="1" parent="14">
          <mxGeometry x="440" y="241" width="251.43" height="64.2" as="geometry" />
        </mxCell>
        <mxCell id="jBB3iKR9src9GKSUZVXM-1007" value="&lt;font color=&quot;#000000&quot;&gt;function_upload_data_into_bigquery&lt;/font&gt;&lt;br&gt;Cloud Functions&lt;br&gt;Trigger type: Bucket" style="sketch=0;dashed=0;connectable=0;html=1;fillColor=#5184F3;strokeColor=none;shape=mxgraph.gcp2.hexIcon;prIcon=cloud_functions;part=1;labelPosition=right;verticalLabelPosition=middle;align=left;verticalAlign=middle;spacingLeft=5;fontColor=#999999;fontSize=12;" vertex="1" parent="jBB3iKR9src9GKSUZVXM-1006">
          <mxGeometry y="0.5" width="44" height="39" relative="1" as="geometry">
            <mxPoint x="5" y="-19.5" as="offset" />
          </mxGeometry>
        </mxCell>
        <mxCell id="jBB3iKR9src9GKSUZVXM-1012" value="" style="strokeColor=#dddddd;fillColor=#ffffff;shadow=1;strokeWidth=1;rounded=1;absoluteArcSize=1;arcSize=2;fontSize=11;fontColor=#9E9E9E;align=center;html=1;" vertex="1" parent="14">
          <mxGeometry x="290" y="67.06" width="175.32" height="52.94" as="geometry" />
        </mxCell>
        <mxCell id="jBB3iKR9src9GKSUZVXM-1013" value="&lt;font color=&quot;#000000&quot;&gt;workflow_parse_lists&lt;/font&gt;&lt;br&gt;&lt;font style=&quot;font-size: 11px&quot;&gt;Workflows&lt;br&gt;&lt;/font&gt;" style="dashed=0;connectable=0;html=1;fillColor=#5184F3;strokeColor=none;shape=mxgraph.gcp2.hexIcon;prIcon=container_engine;part=1;labelPosition=right;verticalLabelPosition=middle;align=left;verticalAlign=top;spacingLeft=5;fontColor=#999999;fontSize=12;spacingTop=-8;" vertex="1" parent="jBB3iKR9src9GKSUZVXM-1012">
          <mxGeometry width="44" height="39" relative="1" as="geometry">
            <mxPoint x="5" y="7" as="offset" />
          </mxGeometry>
        </mxCell>
        <mxCell id="jBB3iKR9src9GKSUZVXM-1014" value="" style="shape=image;verticalLabelPosition=bottom;labelBackgroundColor=#ffffff;verticalAlign=top;aspect=fixed;imageAspect=0;image=data:image/png,iVBORw0KGgoAAAANSUhEUgAAAN8AAADiCAMAAAD5w+JtAAAAllBMVEX///9Qhu1Lft1IfN1KguyjvfVNhO3t8v1jlPD7/P9He9zt8vtEedy7zfJejOBRiO670fnG1fR6n+aeuO3b5PlQgd+xxvDi6vmWs+tWheB0muXV4Pc6c9r3+f55o/Kswu6mvO6HqeiUtfRajO5tlOPf6fxvm/CKrfPE1fl/pfJcj+5pl++vxveSsvOFqvLO3fpdieCRrurHVMu5AAANVklEQVR4nO1da3uqOBCupILRKmoFRDbesbZ6RP//n1suwYIQyAQC/cD77LPn7FZLXgZmMte8vXXo0KFDhw4dOnTo0KFDhw4dOnTo0KGDGIh7nl77UnA9O1q75LA1/bro77Kg/qz7HmmPnmZ+H3oyofb0y95piSF2vuSyowzX5qgNemR6UqXTCxi+H/ZuC/TMQRPsQuj/Fk3Tw+dBI9KLcNg3rUjPzTycT4L9Zgm6302y8zGYNqlFyVW+5kxB7X01qWOcU7P0fByuzQlQ6+uN8+utncb4zS6NKpcIzakY7avXAj91cMaN0MPTn+bZBfhnNcLPato2UKiDaRMCJFe9hacz4Nf7bsJGOM3uXJIEm7ARpN+S+AKCa086v0b31a/8dOk2wrcNLUI9SbYRvm1oT3w+9C+5AlysW6XX6/1I9SNIv2G/IYtvma78onm/4QW+jZAXbRrt29h4vhCUaCPOzYWU2PzkxWK0f61LL8BFlo24tmsbKNTelxw/wm3bNlCoA1OGjfD9hraZRVB7Nxk2wru0TSyGeujXL0DfNvwdnLzaVcxfsA0xJPgR2u1vKJcIat02AputbzzTqDnW9FdsQwzfRtQpwDaDEgys67QRXhsB62Ic+vX5EaP9nxNfYCNq43f+Y8olgKrX5kdYf8o2PHGpKZz952wDhV6TH+Gs39umko+fWvyIPxBTYkCtJeXp/D3bEKOOWNMfCUrko7qNwOeWkpk8qMFGiNsGtQDM70AvUjlnLVboor739EJkmQSswx/AOFa0Ea5YMvOw7pvTAlz/XV6COap+ufnfufZvA1CY56dSylPQbxj0XVz43GDifdkowa536Xsj/zsYa7P9ACLD7yo2whNKZnLVAWhLW3l+43Bzfr9Czt+Au1ol1qT9E2DX++G7ortDlKB62KffIucLQPAiHmsSS2Zy7irw2I4JZmrnnDX/SyhuIyyhoITO63i6R6QYepB0plaaWK4WyQJPAZsmURsBL3QJbZt+pZfDTEQ/1+YK8iUYR2vJbLk6rpbRi6jtAVpUsHRyAbUNg8vpdLqcplQ8Jguz6IHSlscAl1soPjKeoCEaKqtIGucJ98XVn6uIAEkfyK7vaAFG9BEz0TAfH0f6gpJR8HEtlB6eTZDiA6FVSNeao/JLxgSFYk1nkN+gr2dprYlNJVxwFuiYo4C0R/xT4zP4RaOHYXDzEwlnj2CFLpmMgM+PgVx+zup5N+aBsSBbQ+F/BeF+BIbFlAbTzC+A8Zsdn/xWbsjPVpTy61LAbQSwCDL7+0Xlh2L5+daRnyC0dBJfD4C3T/3J/nogv5z3L/gv3hXoN5gf4ZxAMaVLtGKsOT40yg8x9Mswj1+gP4PPx/rTnUcf5n0HYaWTBBawVtcWFYLtI8p8YNM2GFjRu2EtgtvhLMIbQsyJTw6h4zj4Oj5P6N3gXgLEj/BgG8+Y32L1oSgGzexYMxa8aAM3ekxCHDd0/7Kb3CePSA9rSyN+XjmXAMlHaF+wncsvP/8RMzacr7o1DwWGnu8j1iy6OXgbT36fZ841nGa89PAUGJSI+bmhElxy6uoFNQlI2WX8h1XyheUKy6j6P14b4X5D99Upfiu+N4GYdqyA7GVa+7k7QwET5PYjMDgokeKHjCWXKnPmv/rV2C1+14Zn89etHR/BG58f4YALXdLyQ/aG41Vf7IxfEkg5bmkb8chZ3rM7Vy6CfLEmqN+Q4aco96VDCgNMeDSbGy8UJrutOTa3u0nuvpyLIFfp5HkAThe98kPKfb78LMBuZQ9fCCD08YGU4F+52wIuM3HYlwtQJGD9ys9fzhAVwP9xHgeF5VFFEuQAR6zJhGw8mfwkgEOCHPkIS6TCuhF+Co+/W+ZHkKsAvYb4ce21S2yEWPNUQ/x4XsFiGzHaC6VTmPxCXVK0YpYPxfg0x1pORbunqVjzFJOfsdp6iwI45s6GECyXoNoriDVpNxF2TH7ovrXK9LU2PtZMkO1H4KlghTWD353LU0pEljiAynJnKrt00hItdMnnZyy5PE5i3iECRGVvkHo5M64EdftK+E04Hc7FHKZ1y1aj7/Pvq6DyZPFDc86Q1mgJoldKUL3kh+vB+ZRifsqO3kZMiP9PAPoHCf8Pjl0MsjFgAizZyKiH/B5BT7jS5Tf+ktw3U37WdsnAZ5QLIxslnYApZ1u8HEYGciaws07zs+YfCVB+3v2DkUeikTbsbLZJ7O6lVr/Y0L/nF42I8+udoiceL8YJ0Mll3oSVR7Lza8SJsyw1+oUE3/N7PCvwG7BUsgg/X+Ns7TIJFlnq9/xYbwV+ekHJhAA/X6VWkWD9/IoScCL8fJtYxq9Ax0jgp9+Yu1ohfmRTvu9m86v9/ev1jB3LmnsTRixmWMDvzePYlTL55etPr0qHmKqsxqPc5TpHm4HJOLIP3mfCKNI0vsuzaWMpmXwXyYKG5dNA9mq5SYKulFhM0A9slITVnEfPlsW1Kc2/1Yf8unPcr9Tdroe7kOc6h8M5Z74jKCV4AtHsBR+/fIIDhgsvVi2YIJhCbho697nZJXflMH45BFXmDA4i7EBQpPnZG76UccrBhfLLEiwY0+RUbXBPE+RLlFm7vC9x88sSZJcswzNjhQS5MoHWI2Xp4PxeNjKFrauLqq04L9c+blz/YviN/uv379Gfb1gbz9POH5xfWoJqTilOQoCVZ3+lrzxU7qt5AVYT48Xbq8zvUpgj025Ve6le0nqsIkLqyWY8PRF+iUe0tPX/XGWTFoJ/WblLFeGXkGBZOT2pPDtRL19O7fyeO7XylrkaWolb4EcJquXtLALp9ydUNZyqnktw+FGI+EUU5Rc9ojwlIgtYaV2C3Xvvctvvvy6994zWGBrHR0E+frmbKMNq/BT/7ur/OCLm2BSyEao66C9IYNmI27+8XNt4OKS4YWc0W1Xkp/w2GhRDW4tIT//6bbHBi0fKatufHPfVDS19FX68JXYieYiXmCpJRMAQZ6IlLGiqwI8RlsgC3nakZipPEgTRka/6GwcFaeL8ECMsnwOwI6g+0/rPsqWEV/fgrMwMarCF+SFAiTKBevI/UXwXO5/zOe2wefPs/yJ8bDnva3BLhPmpRTHmV0DbNiOPebS9BxEKO3rdiBPX60b3FVseq6DXoQW9uw80BMVfkuIDzRMB9fSrh7ABKC7oREauwIg5YQXSopLyNzLbbuMyQmipyTusxQMUS1MH4e+O63EZkZdEPesLhjkKaAYrO0A6sA8X1PYepo/w+OmI23m7XJ8fa3VZfmQLy3mCR0eDSszXYUfNbxo29wEF8XNgjycagFvkINncU8jPFOWXNZCjB1B88DZ4DOigjNpXvLjOA93zKicA8rOWr8W9JfRExqHxl9qpkfkb7RTaokgrJ9LXZOuXtPwwme1g0kOFMSUWMP+8SJredFYfQ4SGH9Fy8XgXgbakkM3wPwZopczIDD+/sotr8rLiK6ypY8L65nYEaf7d/ZyExeXR11dRXmyoUG26YDbkjmn70o5m0kDsFMTZcJ8RILcfocb5aeJ6nkv/atJ3CBmccfp0IoKfnvDIaP4W1Zyar0RWgc89ghdqxeITHvkN8CNew6rerwFDK777i8d3AX6owqhFAphpejon7iKZJRqkeBNJ6UQLN7/LTHzEDWC2lPrziHuIsK9nUpKYjDmuNfqElfJSegdGtSAXADbCh73beM7CM3eZ5+y+KXuGsAPcssT8qo0ztwCxJrWHFMO2jbw2FHu1NMcF2DyOYvSqHlliglKeYftY7jqGPvcCAAvpn6h85Axw/FnRrRYiUAyU05gOBKwqRm5/RwZG9RGLBHYmQqMEEbOUHADgmRbV0mMwerUcuYaB8yObkyCqZ0StCyw6aIxeXcdZQfMRDUkQ1XUcGXScQTMSRPWN+J5BOwcakCBC9Y1oB44TaYbgqYLf8Ap4W6d0gkaN88tFzjSUTBCJxZRYEGidk0oQVZv7mYHIjG+p/Oo+YkakdVUivfqPGhU5t1EaP6P+M7o0kfNzJNFDEs7PEZpjLkfHIKNKTIkFofOrpBBElWYKM+GK1DXJIGhLOgYXNLNPIkHOOUtgWFA/QgpBCbaBQnDWfs30DO45Z2AInrFWqwQR/5w6OOCjw+qWIDJkHtEseFZJjTE1zqYfUYieX1wbP1m2gUL4rKB62CEDOKcVDOHzPOohOJFlG544i/bQ1cAOKXvJ4gvPWhPjVwNB3krnSvBEx6hU1qLIrjOmxMKoL3wOblWCcm1DjApnVVYT313KucUZELEzg3zoVXZqSBE85wEM4Oz2mgii+7gR8b0Jj7kLIM7PeEjceKYhFGuqSvAo0W94RZUmSEF6XD1adYFsK5yVLvYOzhuxDTGEYk0VJNiUbYiBK6gYEYISgxL5IELBNAr4Tm1eczqlHFq/Sqc8rD5emdeYq+Un+FNh1gFMehLSDeUg55P4LAD+R3RoLxval70CO/sB9DxJmAQRQsZq2rBqSWA0+zfovQtB7RWP3ghHOQ3teThhpT0Qd7q/nS4DAVwmxTjOHxuvPdk9gcNz0sAYaaMSkEZNeocOHTp06NChQ4cOHTp06NChgyT8D+aZlXj9/lF7AAAAAElFTkSuQmCC;" vertex="1" parent="jBB3iKR9src9GKSUZVXM-1012">
          <mxGeometry x="12.98" y="11.38" width="30.22" height="30.62" as="geometry" />
        </mxCell>
        <mxCell id="jBB3iKR9src9GKSUZVXM-1002" value="" style="strokeColor=#dddddd;shadow=1;strokeWidth=1;rounded=1;absoluteArcSize=1;arcSize=2;" vertex="1" parent="14">
          <mxGeometry y="67.06" width="160" height="52.94" as="geometry" />
        </mxCell>
        <mxCell id="jBB3iKR9src9GKSUZVXM-1003" value="Tournament Lists&lt;br&gt;Cloud Storage" style="sketch=0;dashed=0;connectable=0;html=1;fillColor=#5184F3;strokeColor=none;shape=mxgraph.gcp2.hexIcon;prIcon=cloud_storage;part=1;labelPosition=right;verticalLabelPosition=middle;align=left;verticalAlign=middle;spacingLeft=5;fontColor=#999999;fontSize=12;" vertex="1" parent="jBB3iKR9src9GKSUZVXM-1002">
          <mxGeometry y="0.5" width="44" height="39" relative="1" as="geometry">
            <mxPoint x="5" y="-19.5" as="offset" />
          </mxGeometry>
        </mxCell>
        <mxCell id="jBB3iKR9src9GKSUZVXM-1015" value="" style="edgeStyle=orthogonalEdgeStyle;fontSize=12;html=1;endArrow=blockThin;endFill=1;rounded=0;strokeWidth=2;endSize=4;startSize=4;dashed=0;strokeColor=#4284F3;exitX=0.75;exitY=1;exitDx=0;exitDy=0;entryX=0.5;entryY=0;entryDx=0;entryDy=0;" edge="1" parent="14" source="jBB3iKR9src9GKSUZVXM-1002" target="jBB3iKR9src9GKSUZVXM-1004">
          <mxGeometry width="100" relative="1" as="geometry">
            <mxPoint x="159.99766233766235" y="94.99952755905514" as="sourcePoint" />
            <mxPoint x="229.4781818181818" y="94.99952755905514" as="targetPoint" />
          </mxGeometry>
        </mxCell>
        <mxCell id="jBB3iKR9src9GKSUZVXM-1017" value="" style="edgeStyle=orthogonalEdgeStyle;fontSize=12;html=1;endArrow=blockThin;endFill=1;rounded=0;strokeWidth=2;endSize=4;startSize=4;dashed=0;strokeColor=#4284F3;exitX=1;exitY=0.5;exitDx=0;exitDy=0;entryX=0;entryY=0.5;entryDx=0;entryDy=0;" edge="1" parent="14" source="jBB3iKR9src9GKSUZVXM-1004" target="jBB3iKR9src9GKSUZVXM-1012">
          <mxGeometry width="100" relative="1" as="geometry">
            <mxPoint x="418.1876623376624" y="93.10952755905521" as="sourcePoint" />
            <mxPoint x="487.66818181818184" y="93.10952755905521" as="targetPoint" />
          </mxGeometry>
        </mxCell>
        <mxCell id="jBB3iKR9src9GKSUZVXM-1018" value="" style="edgeStyle=orthogonalEdgeStyle;fontSize=12;html=1;endArrow=blockThin;endFill=1;rounded=0;strokeWidth=2;endSize=4;startSize=4;dashed=0;strokeColor=#4284F3;exitX=0.5;exitY=1;exitDx=0;exitDy=0;entryX=0;entryY=0.5;entryDx=0;entryDy=0;" edge="1" parent="14" source="jBB3iKR9src9GKSUZVXM-1012" target="jBB3iKR9src9GKSUZVXM-1008">
          <mxGeometry width="100" relative="1" as="geometry">
            <mxPoint x="360" y="211" as="sourcePoint" />
            <mxPoint x="460" y="211" as="targetPoint" />
          </mxGeometry>
        </mxCell>
        <mxCell id="jBB3iKR9src9GKSUZVXM-1019" value="" style="edgeStyle=orthogonalEdgeStyle;fontSize=12;html=1;endArrow=blockThin;endFill=1;rounded=0;strokeWidth=2;endSize=4;startSize=4;dashed=0;strokeColor=#4284F3;exitX=0.25;exitY=1;exitDx=0;exitDy=0;entryX=0;entryY=0.5;entryDx=0;entryDy=0;" edge="1" parent="14" source="jBB3iKR9src9GKSUZVXM-1012" target="jBB3iKR9src9GKSUZVXM-1006">
          <mxGeometry width="100" relative="1" as="geometry">
            <mxPoint x="360" y="211" as="sourcePoint" />
            <mxPoint x="460" y="211" as="targetPoint" />
          </mxGeometry>
        </mxCell>
        <mxCell id="jBB3iKR9src9GKSUZVXM-1020" value="" style="strokeColor=#dddddd;shadow=1;strokeWidth=1;rounded=1;absoluteArcSize=1;arcSize=2;" vertex="1" parent="14">
          <mxGeometry x="760" y="162.26" width="188.19" height="52.94" as="geometry" />
        </mxCell>
        <mxCell id="jBB3iKR9src9GKSUZVXM-1021" value="&lt;font color=&quot;#000000&quot;&gt;function_data_ingestion&lt;/font&gt;&lt;br&gt;Cloud Functions&lt;br&gt;Trigger type: Bucket" style="sketch=0;dashed=0;connectable=0;html=1;fillColor=#5184F3;strokeColor=none;shape=mxgraph.gcp2.hexIcon;prIcon=cloud_functions;part=1;labelPosition=right;verticalLabelPosition=middle;align=left;verticalAlign=middle;spacingLeft=5;fontColor=#999999;fontSize=12;" vertex="1" parent="jBB3iKR9src9GKSUZVXM-1020">
          <mxGeometry y="0.5" width="44" height="39" relative="1" as="geometry">
            <mxPoint x="5" y="-19.5" as="offset" />
          </mxGeometry>
        </mxCell>
        <mxCell id="jBB3iKR9src9GKSUZVXM-1022" value="" style="edgeStyle=orthogonalEdgeStyle;fontSize=12;html=1;endArrow=blockThin;endFill=1;rounded=0;strokeWidth=2;endSize=4;startSize=4;dashed=0;strokeColor=#4284F3;exitX=1;exitY=0.5;exitDx=0;exitDy=0;entryX=0;entryY=0.5;entryDx=0;entryDy=0;" edge="1" parent="14" source="jBB3iKR9src9GKSUZVXM-1008" target="jBB3iKR9src9GKSUZVXM-1020">
          <mxGeometry width="100" relative="1" as="geometry">
            <mxPoint x="370" y="211" as="sourcePoint" />
            <mxPoint x="470" y="211" as="targetPoint" />
          </mxGeometry>
        </mxCell>
        <mxCell id="jBB3iKR9src9GKSUZVXM-1023" value="" style="edgeStyle=orthogonalEdgeStyle;fontSize=12;html=1;endArrow=blockThin;endFill=1;rounded=0;strokeWidth=2;endSize=4;startSize=4;dashed=0;strokeColor=#4284F3;entryX=1;entryY=0.5;entryDx=0;entryDy=0;exitX=0.5;exitY=1;exitDx=0;exitDy=0;" edge="1" parent="14" source="jBB3iKR9src9GKSUZVXM-1020" target="jBB3iKR9src9GKSUZVXM-1006">
          <mxGeometry width="100" relative="1" as="geometry">
            <mxPoint x="370" y="211" as="sourcePoint" />
            <mxPoint x="470" y="211" as="targetPoint" />
          </mxGeometry>
        </mxCell>
        <mxCell id="jBB3iKR9src9GKSUZVXM-1024" value="" style="strokeColor=#dddddd;shadow=1;strokeWidth=1;rounded=1;absoluteArcSize=1;arcSize=2;" vertex="1" parent="14">
          <mxGeometry x="443.21" y="351" width="246.79" height="69" as="geometry" />
        </mxCell>
        <mxCell id="jBB3iKR9src9GKSUZVXM-1025" value="&lt;font color=&quot;#000000&quot;&gt;ninthage-data-analytics&lt;br&gt;&lt;/font&gt;BigQuery&lt;br&gt;dataset: &quot;all_lists&quot;&lt;br&gt;table: &quot;tournament_lists&quot;" style="sketch=0;dashed=0;connectable=0;html=1;fillColor=#5184F3;strokeColor=none;shape=mxgraph.gcp2.hexIcon;prIcon=bigquery;part=1;labelPosition=right;verticalLabelPosition=middle;align=left;verticalAlign=middle;spacingLeft=5;fontColor=#999999;fontSize=12;" vertex="1" parent="jBB3iKR9src9GKSUZVXM-1024">
          <mxGeometry y="0.5" width="44" height="39" relative="1" as="geometry">
            <mxPoint x="5" y="-19.5" as="offset" />
          </mxGeometry>
        </mxCell>
        <mxCell id="jBB3iKR9src9GKSUZVXM-1026" value="" style="edgeStyle=orthogonalEdgeStyle;fontSize=12;html=1;endArrow=blockThin;endFill=1;rounded=0;strokeWidth=2;endSize=4;startSize=4;dashed=0;strokeColor=#4284F3;entryX=0.5;entryY=0;entryDx=0;entryDy=0;exitX=0.5;exitY=1;exitDx=0;exitDy=0;" edge="1" parent="14" source="jBB3iKR9src9GKSUZVXM-1006" target="jBB3iKR9src9GKSUZVXM-1024">
          <mxGeometry width="100" relative="1" as="geometry">
            <mxPoint x="370" y="211" as="sourcePoint" />
            <mxPoint x="470" y="211" as="targetPoint" />
          </mxGeometry>
        </mxCell>
        <mxCell id="jBB3iKR9src9GKSUZVXM-1033" value="Analytics" style="sketch=0;points=[[0,0,0],[0.25,0,0],[0.5,0,0],[0.75,0,0],[1,0,0],[1,0.25,0],[1,0.5,0],[1,0.75,0],[1,1,0],[0.75,1,0],[0.5,1,0],[0.25,1,0],[0,1,0],[0,0.75,0],[0,0.5,0],[0,0.25,0]];rounded=1;absoluteArcSize=1;arcSize=2;html=1;strokeColor=none;gradientColor=none;shadow=0;dashed=0;fontSize=12;fontColor=#9E9E9E;align=left;verticalAlign=top;spacing=10;spacingTop=-4;fillColor=#F1F8E9;" vertex="1" parent="14">
          <mxGeometry x="790" y="280" width="210" height="220" as="geometry" />
        </mxCell>
        <mxCell id="jBB3iKR9src9GKSUZVXM-1027" value="" style="shape=image;verticalLabelPosition=bottom;labelBackgroundColor=#ffffff;verticalAlign=top;aspect=fixed;imageAspect=0;image=data:image/png,iVBORw0KGgoAAAANSUhEUgAAAyAAAAMgCAMAAADsrvZaAAAAGXRFWHRTb2Z0d2FyZQBBZG9iZSBJbWFnZVJlYWR5ccllPAAAAyhpVFh0WE1MOmNvbS5hZG9iZS54bXAAAAAAADw/eHBhY2tldCBiZWdpbj0i77u/IiBpZD0iVzVNME1wQ2VoaUh6cmVTek5UY3prYzlkIj8+IDx4OnhtcG1ldGEgeG1sbnM6eD0iYWRvYmU6bnM6bWV0YS8iIHg6eG1wdGs9IkFkb2JlIFhNUCBDb3JlIDUuNi1jMTQwIDc5LjE2MDQ1MSwgMjAxNy8wNS8wNi0wMTowODoyMSAgICAgICAgIj4gPHJkZjpSREYgeG1sbnM6cmRmPSJodHRwOi8vd3d3LnczLm9yZy8xOTk5LzAyLzIyLXJkZi1zeW50YXgtbnMjIj4gPHJkZjpEZXNjcmlwdGlvbiByZGY6YWJvdXQ9IiIgeG1sbnM6eG1wPSJodHRwOi8vbnMuYWRvYmUuY29tL3hhcC8xLjAvIiB4bWxuczp4bXBNTT0iaHR0cDovL25zLmFkb2JlLmNvbS94YXAvMS4wL21tLyIgeG1sbnM6c3RSZWY9Imh0dHA6Ly9ucy5hZG9iZS5jb20veGFwLzEuMC9zVHlwZS9SZXNvdXJjZVJlZiMiIHhtcDpDcmVhdG9yVG9vbD0iQWRvYmUgUGhvdG9zaG9wIENDIDIwMTggKE1hY2ludG9zaCkiIHhtcE1NOkluc3RhbmNlSUQ9InhtcC5paWQ6MjYxOEJGNzlCNTA5MTFFOUIyOTRFQzU2QzE5MzQ5RjUiIHhtcE1NOkRvY3VtZW50SUQ9InhtcC5kaWQ6MjYxOEJGN0FCNTA5MTFFOUIyOTRFQzU2QzE5MzQ5RjUiPiA8eG1wTU06RGVyaXZlZEZyb20gc3RSZWY6aW5zdGFuY2VJRD0ieG1wLmlpZDoyNjE4QkY3N0I1MDkxMUU5QjI5NEVDNTZDMTkzNDlGNSIgc3RSZWY6ZG9jdW1lbnRJRD0ieG1wLmRpZDoyNjE4QkY3OEI1MDkxMUU5QjI5NEVDNTZDMTkzNDlGNSIvPiA8L3JkZjpEZXNjcmlwdGlvbj4gPC9yZGY6UkRGPiA8L3g6eG1wbWV0YT4gPD94cGFja2V0IGVuZD0iciI/Pso8HpUAAAMAUExURert8uVrFGyVoxk0cf7+/h45dDRMgnSbqNJDU80yQ8MLIM7U4XKCqODk7Ky2zKGsxeTs7kNZi+qQFfnaxcvM2yxFffXJqiI8dvTJjdTZ5JWhvd7i6umMDHKZp/j6+sYVKTtShZGeu+7w9P3z6punwVZqlxs2clptmVVairS90PfTo/T3+Pzt2sHS2pe0vsLJ2ZyowlaEnPH09xEtbMonOoqrtvO/emGMouuKRr7G101ikWF0naO8yc/R3vCzX3qKrel/MxQwbtve6IaUtIeKrPji5RgzcPPz921/pbrC1Njc58rQ3tDX4u23veRmDFFmkwkmZ6W+x+h6K+eep4KRsvDy9unr8Y2auPv8/SlCexYxb32Mr2VqleHi6k9UhfX1+O6bYfzz9P779l6KoF9kkKCjvXmfq/n6+9Pf5D5ViLG6zrfL0uTn7tpjcLHHzhEsa+bp72BkkWh6ora/0vzt4+mIBBQvbfX2+Y6tu4Wns11wm/jYueZtGMfN3OSOl0ddjbnN03GBp8TK2nugrPL29/G4aRUxbvf4+vr7/Keyyenp79zh6vDw9MUPJKzEy4iVtcIFGmWPpSY/eZ65xGZ4oLjA036CpumANcnY3dRRYEBXiYqYtqOuxu/09evu8/T099zg6W+Apl1hj/39/aSnwO3v9FBWhuZxHeqOETFJgICPsPXMk+iGAOmkrFuIn4SSs4Ckr2CLoa64ze6oR36Nr1mGnYeotL7Q12l7o8XM2++sUOnv8qCrxPb3+cXW26qtxBcyb9vl6WSQnv78/GV1nu2eNFlejN/o7Gt9pEtgkHuLrt/i6y9HfskgM+ZvGipDe1pfjSpEew4qalhdjPDy9eDj7P3+/m+YpStEfMDH2Hufsf33+O2iO952gt/g6XeIq+uXJPfd4BQwbb/G1xw3c3aGqoWTs1drmBgycEpfj3mIrGOOpFJXh+Ll7cPF1dfj5vrq7OeEAP/8+vfSoPnl6E9/mNPU4O+jbdzm6bzD1d3i6scYLN3h6qiqwyA6df///+QVWJwAACNuSURBVHja7N0NeBTnYeBx7NEssSVENzXdSg5kpUgjq01rwtqXIELxQLKARCs5Z32t3dAmPisiqpEhGdmqqWzCSSi5FN8aWlciYFuliWguJJQ6dgPpJiEu2IrhBLLh0gt39sgYau6uzaV3XN2dW32Adt/Zj9nV7uyi/f+Tx0/iXWlWM/Pb+Xp3dp5BRDGbxywgAggRQIgAQgQQIoAQAYQIIEQAIQIIEQGECCBEACECCBFAiABCBBAigBABhAggRAQQIoAQAYQIIEQAIQIIEUCIAEIEECICCBFAiABCBBAigBABhAggRAAhAggRQIgIIEQAIQIIEUCIAEIEECKAEAGECCBEBBAigBABhAggRAAhAggRQIgAQgQQIoAQEUCIAEIEECKAEAGECCBEACECCBFAiAggRAAhAggRQIgAQgQQIoAQAYQIIEQAISKAEAGECCBEACECCBFAiABCBBAigBABhFlABBAigBABhAggRAAhAggRQIgAQgQQIgIIEUCIAEIEECKAEAGECCBEACECCBFAiAggRAAhAggRQIgAQgQQIoAQAYQIIEQEECKAEAGECCBEACECCBFAiABCBBAigBARQIgAQgQQIoAQAYQIIEQAIQIIEUCICCBEACECCBFAiABCBBAigBABhAggRAAhIoAQAYQIIEQAIQIIEUCIAEIEECKAEBFAiABCBBAigBABhAggRAAhAggRQIgAQkQAIQIIEUCIAEIEECKAEAGECCBEACECCLOACCBEACECCBFAiABC5toenf+lL33poReWMSsAQuaW3P3G/PnzF3/7a8wKgBBAAEIAAQgBBCAEEIAQQAggACGAAIQAAhACCEAIIAQQgBBAAEIAAQgBBCAEEIAQQAggACGAAIQAModrmQayg1kBkLnaZz50rc/Ef+Lr9z52t9ALD82f7AXxgceebon/u3ZcbwmLACC53M9//PdT/fgvEwD5zR++ITblY77p39/8ws64v6v8v1xr8cMsAoDkcr/6xQ9M9c1/kwjIzfOttvju+EC+99ffmu4XT7MIAJLTQD7w/qk+YCeQz350uo98nEUAEIAABCBzHsijP7xZbPGUB9O/v/mxNoAAJL+AGN//44eF/vjbE0IWP2R64OHvDgEEIHkGxNxQqtdBAAKQfADSluqVdIAAJB+ALAEIQAACEIAABCAAIYAAhAACEAIIAQQgBBCAEEAAAhCAAAQgAAEIQAACEIAAhAACEAIIQAggBBCAEEAAQgCZM0Aeu3niLnFfAghAABKllu9//oknnvj8d/sAAhCApDGAAAQgAAHIHOgvswFkxwyQe1kEAMlyP/rDX4vdb31jGsg3/ibOs37tM0lP9cBvxO7h71wD8q27Yz/ru59j2QHEhj7zV//4xZhd24CENiGxn/TN93846ak+85E4ffR634r9pF88xrIDiB1A/mZGQWp9478lD2TDd77z0dn1rUdZdgABCEAAAhCAAAQgAAEIQAACEIAABCB5BOSvrn1RZ5S+MaMg9pO++P4vJA/ks5/9TszCGMR+EkAAYg+QX/2t2P399QuFP47zrH//oeSB/MM//MeYzfiI9ySAAMSWCv4p9mMZG4vV8uux+7uZoSZPx37Wjj4WHUCyXVYGK5YzWBEgAIkdo3kBAhCAAAQgAAEIQAACEIAABCAEEIAQQABC2QfyhbA+BBCAACSyj33qel//PwABCEAiu+d3brrW7/weQAACkMj+9KbXrgUQgAAEIAABCEAAQgABCAEEIAQQAghACCAAIYAABCAAAQhAAAIQgAAEIAABCEByD0jLytvqblt5W+gfZ1lCAAGI2P4Hz5ye6MzplSwhgGS0giee/vjHP/70vV+7oYA8f8eZie44AxCAZLhHf3hzqMW/xBYEIGTu9d+8ef78+YsfAghAKBUg35z+ioN/tBPIR/56ul88DRCA5DKQD/98+pvQf/5h+4D0zXwX+g8AApBcBpJ6swCSKIAABCAAAQhAAAIQgAAEIAABCEAAAhCAAAQgACGAAIQAQgABCAEEIAABCEAAAhCAAAQg+QDkl//0nrh9/bqP1x7/etznfupjSX5F27HrQP6ZJQiQzDYN5HvJA3n8pri9FlaCp34qHpCh/WvFvnwdyHbTY/uHWKYASbVf+p+mHn1jEsj3TQ/8oCUBkK8//lp6evyeeEC+/MCDpk5fy/TI8w/8LosZIKl278TmwlqLv/01u4DclADI1B0awnr5OpCXxYfuePBnLGaApA5ksdg1D2Jv2Ack0RbkzGnrnXkEIADJsy0IQACS10DYggAkR4HM7GLNz+IuFlsQgORIT0/eJW6mmYMQ8cjkofmPsQUBSL71uYc/H953n3nmmbunTvM+8UxEn/u/P/g7207zJtiCPPLuHWLXPZgeefc0QACSzlK/UPja43GL3EjE66Z7vhBnOn0rbxP7Hw9Oneh9+fTfmh/sYpkCJH3NYqjJazdZBhKfUvwr6VFqY6gJQHIeyId+JX6fmiFy08cSPPefkps0gxUBkvtAEsVoXoAABCAAAQhAAAIQgACEAAIQAggBBCAAAQhAAAIQgAAEIAABCEAAAhCA5BmQn/7+tX5qH5DXN3ZNt6MNIADJZSB/cMv73jf531v+zD4gnU5nz+R/nO5SgAAkl4G876lbp3rqLvuAjGmB6RouAAQgOQ3k1g9O9dVb7AOyQAlO5zkCEIBkF8gPF7/xxs3zAQIQigbk3m+/8MILj939PYAAhKL0619bNtHQjQRk7R2fnu42FiBAslpOAmn71z+froMlBBCAEEAAAhCAAAQgAAEIQAACEIAAhAACEAIIQAggBBCAEEAAQgABCEAAAhCAACRvgdwz8/06AAEIQAACEIAk0R+GfYPULwMEIABJWwABCEAAAhCAAAQgAAEIQAACEIAQQABCAAEI3dBA5l0HsvkQiwAgWe5Hv/1vY3fLV68BuSvOs/7T7yc91SsLF+6NVZl8DUjgYswn7T26nGUHEBv66Z899dWYfXCm2E+69Sf/PempbpW8SsyC15NjP8lTxbIDiC1Abv3g7PpqCkD2yLocszAgsQt0s+wAcmMAuSsVIGEMUsoLEIDM5S0IQADCFgQgAAEIWxCAAIQtCEDyFUh2TvNKszzNq3GaFyC2APmDn9wVs3+57uNfYj/pJ7d8MumpLh8eGY7VyIwPvyPms06dYNkBxIYK/tcnY/a/w4aafDLO036U9FSPdcSss+76JkQrmhfzaVf2sewAku2yMharY2aw4kEWAUDmLJCC6ZL9OUbzAiQPgPR94k+m+kQnQAACELGNz797x0R/8cjPAAIQgJiAPHLm9ER3PPC7AAEIQAACEIAABCAEEIAQQABCACGAAIQAAhACCEAAAhCAAAQgAAEIQAACEIAABCAAIYAAhAACEAIIAQQgBBCAAAQgcxaIcR1IE0AAkudA9v/rvzP1/MuTQM480mx66M/3AQQg+QTky89/2tSUj9OnX37X9NC7qwECkHwC0vTAmdOWe/nMgz8DCEAAEiuAAAQgAAFIHgB56tapnrrLPiBjnsB0DZdZBADJ5f7ov17rj+wDcmDVkenGq1kEAJkLffnBT78rdv2Y3PTIp8+sZpYBJJ/6D7s+Yer5aR/P/4n5sU5mGUDyqgIxY//1K+k/Mz3K/AJI3nfsOpArzAyAkFjqgxUJIAAhgAAEIAAhgACEAAIQAghACCAAIYAQQABCAAEIAQQgBBCAEEAIIAAhgACEAAIQAghACCAEkFwD8uAdZyZ6FyAAoShAHnhksgePAwQgZKqga7JjG48NMTMAQgQQIoAQAYQIIEQEECKAEAGECCBEACECCBFAiABCBBAigBARQIgAQgQQIoAQAYQIIEQAIQIIEUCICCBEACECCBFAiABCBBAigBABhAggRAAhIoAQAYQIIEQAIQIIEUAoYV1Fld1hXTzELAEIzVTuGNXCGq1hlgCEZjrb7g2GJVUySwBCAAEIAQQgBBCAEEAAQgAhgACEAAIQAghACCAAIYAABCAAIYAAZI60ZN6+8OZtBAhAaKb1AwPOsNylAAEIzVSsviOFNXoEIAChMCC6HL7SBu4DCEAIIJQRIEON5WfDKu8CCEAAMlNHpbMnrPZdAAEIQGZ6tVX1hjW6BSAAAchMYyN6+CJW1wEEIAABCEAAAhCAAAQgACGAAIQAAhACCEAIIAAhgAAEIAABCEAAAhCAAAQgAAEIQAACEIAAhAACEAIIQAggACGAAAQgAAEIQAACEIAABCAAAQhAAAIQgER0GCAAAUjsCl0AAQhAAEIAAQgBBCAEEMv1LVsb3rIWgGSlof2Ry6ELIHYCmVe4de/g2ye2vLhlfLC0ePvqmUfu11vDU+rSB6RgQd2mo82vhCa6bk1z//oN83IWSFPh+eLipbsGS/uL16+8MpS55dC2+nxx2eCFiVmya3BvdcnMLKl1+MOXQ3AFQOwC0rT8YH17q3ezpgVC+TSPx+U4WXS4c+rRcY8e3uaX0gPkQMnSF086/OpmTZ2YqqZtVha5q5rrDuQakL5X+8dPus8FPZs9WuhVblZa3T1bjpYsS/9y6KpdurtnWPZ4tN7pWeINzZKywqlJlZyTwpeDz+qftva9sfDea0y4Ot8e8QNjx6I+q2PveH3lkwvH5jyQtq1Fw95Ar1cJX4t1xefzjry4qS/0hAta+OsJattmC2RNaO72j7crXp9PCr9EIiteNSC1r3orl4CUNFe6AqEXOjN7ZF0K+Lx6z66X0rsgVpfVyIHeQMRymJwlek/zxAa9ZEQJ/9O8Fy3+3qOjSnijFYl+4DlP+PMl/XyU5+w75BrVHcP6qH65Y04DmVcxIGsREwxToirOvWeNy2kGIhUtXzEsaUr0iQYVzXVyb3luAOlaX3VKC8hRX6ekueoPN6ZrOey8c/ci1Rt9SqFJLTpRaKwWgFRZ/NULN0cuv4RAigIRa4HrzihvG85R596Os+UdhysbHHVzF8iyCrcmxVgqk29gktZTfVlNL5CgS4p8mzTB9GrOvUM5AOTwSa9PifM6A75Lxa+nZUHUdced0sS7xtvLhyOe0TuePSCvOhpWtU39z5ayd85tmKtArjp7vcEEeYOn5DQDkeVgwqkG6guzDaQwtNImeqUBb3ft7JdDxypXb6Ip6b7/HDkbfa9kDUhL1egqY0HpwS1HJg5Blo6e7JqTQBovyN7Eq6ppdZ49ECvJAX9zWzaBtDX7e63Mnd7W0tme01rv1qzMIGFH2Lcqa0A2be7pM0obXMOto4vOG68fb+ifi0BqT3r0YArZA2Rir6K7I3tAnq3UFGuvU1JP7JvVgihTvKksh+wBaelu2GQYFaGj/Y33jVYVGHVyzRwEstwRCAZzGUjoTx8oyRaQO92q9Y2dVr9gFucBTvhSep/KIpCxc46mKSBGp7+nwCi45Jp7QNb7U/RhI5Cgb3hbdoAkOXc0d8oHIhuPa6nOnKwBqWuYuEY5AaSgdHTiVMHluQdkj18K5j6QoHRuZTaAJD13fD2dqS2HHbtT9ZFFIC81PDkBxOuod0pVE3/4oTkHpLA1ZR9B1UYgwYB7tf1A1if/7qFd3JjS1Y91asqzJptbkN0TQALueod2Yknofx6ca0A63b6Ufeinam0EEtTq99sNJJV3D1krKkhhQQxqqc+Z7AEpUWr6pnaxDlQ2VIf+xQpbgRwYjgCiFaXdR9uK3jgndWVF0eNcqUgvkNDkdEWR40zPM15gL5Ampy/Oq5VjvFZZ6k9+QewJ6qnPmOwBaXRKhdMH6XtH3w6t/o7h2QMpL7tvjbUu+CNmiuK0+HNrDh61OBC9TIt1LWpibFRr+4AjpCSgKhkGor+jTgwAc7S3+2VdUmOM6JC9xfYCWafFeB3q1HC1ieFRUUYfSMNjSW/IHd4Y4xcmJqW7QzNG172xBqBk8TrIfQ2vhIA0hH5RnVJlGKUNq2YP5D1/w2ZriVtdxeLPbW5wWruyVtIabdWXFY+/Znxv3ZWmxsYDnYXFBysXeaKNQkkTEFnyuJxbyrbWdh5obGzq2L73uZ5g9DFhkrvTTiD970RbH2Wft3132dXazs7Owj1lx91eM2d1S5JTer0oKkXZJ7lXlIZmTHloxrx3vnT3gKTquQWkY0Q/byzdHPpFy9znjn3lnKt29kDGHKkfFls9oK2xBuR4tOUiedubCyO3QCVHa2TzWIu0APH2+mtK6yJH+m18addw1Itz2is2AukclqKts64tW5vCn1VdJXtN7zDrk5vU1WgD0uQ3/S/uiXxHOLB8/FyUgVpZBGL0e4brGusmXmZtSUlPQ8LfmBtAfDU7LZ2j0c3LRe91LIwynqZl+QrTW2UagCiqc01JtPEZnYMjUc7q6K4N9gEZj/LuIem7zQPDtjrFS4m++p3JTGlnTZRrLV79RLQ/tmPNiGnzmk0goQMQV8WSKeaO0YMtxhzagrTVm49BdWU8xm5MwZ6agJ5mIIqzOuZo9mePRxkfqG4psAvIBr95b8bn3hT1ZMoWEbO0NZlJbYqyAfG1V8d49oL7/b4cAmIUOxoc60pLxwdGTy1M/BJupC3IefOBheSKcwamr6xVTi+QiQ9Mxa5ZN+1NKP5Cu4A8qZr3ebqvRH/usReFrY2vMomP6/eZNyBy74o4h1t19XIOATGulNXomqY7m283bhQglrYgBVWmDYiyKP5H+IrUNAOJf9OGCsX0Jq4dtAlIieloSVaK+mI9e219QNgXTOIa6p2S+UhnXdwFWHJOySEgIeIdY2Md1u4ccQNtQcynsPTg1fg/skqzFUhIiLiW6sMH7AEybtqAqONJ7JBpR6xPaot5Urv74v5E7UhuAUmiG2gL0qyazu8fTfAjF2wGYhw0HSi/s9cWIJ2mhaSuOBbvB16JfKW6w/JHhcdMZ8ve6UnwLrAtkiNAMrEF6btkWgW2DOUakCX14u652l1gB5B+8d3DOxB/jS+JXGdl64fpe8VJ6a2JPtq9J/KyOkAysQXZIJ7jVYYTfpbBdiBGnUs4DJEcV+wAsls4PtOj3tAj/FRtfeR6rl6wOKWCLeKhoGcw4fl5gGR+C1ImXt7yJVwuWQBiXBbfX9+stgFI5znBZW/C9X0wIAx7X2vxZQ6LbwHueQDJgS1ItypuQDpzEUiJXziV0Hu/DUCKhbMD+qlXE56Lilxp9VaLn4E8L45C9JUa+Q3k9uGAbjHxKNrqz3lOJgQyr13YgmgW7pO7yn4gxm5hvLFUYwMQ4Q55QTXxSakm4bywZ5O1STULI76Ukc48B7JgwL/IWqdckT6s/twiV1VCIIXCeUlZTnwJbihyd9keIJuE7a2+qDPjQI7VRB4XKBY2B8fckZs61eKNubeI1xgtfKhhbgNpW/D/brfUle2LIs/mrRgbs/aTX+lMeKpn02bxsOVY4ld+0Ws/kH0jwt6Of1vGgSyIvDFb0Fe5rDxBZzudkT/jtXZH6f2XIo9d5MDWpIGoZXMKiPU6hE8UPpfG3y1+EkS1MFC2rSoLQAq2CGuQsjDjQF4Sduvkc+3uBLW7/cKuUrul89HvCRYVx6tJA9GW5imQTH7ktkhY7fTiHAViVAjbOs+ajAPp10zXUKWEiWOdF1laF+qEs+2qlVFcAMk4kILKyF172VVrB5Ar/uSBXBVO82hPZhzIId/szyTq1sZVXvUkfwgCkMwDaRH2mHVHlx1A1qYARLjXf1A9nnEgWwKzByK7rlpaZzXh45UVAMkFIG3C5SmlZokdQM6mAKTcLQmfRtqYaSCV3jQAkQ9bmVSFAETfA5BcANIlAAnsLshVIC09ke/n3kvLMg2kPQ2Xcq1tC4yDPoFVHUByAcizpwQgVu4zkB0ghnBRwnsy40Dc9gFZJQBxXQFILgCpbRU+v3AoeSDJ3WQkbUCknsYMA1mSTSDzAJKTQAZTAOLclxUg7fMyDES8TmgrkCaA5CKQN1PZgjjnZQNI5o9BrmQTCFuQnAByRRjPHThx4wDJ+DFIo0MAomhq0mmjpVamdVkE0gmQXDzNm8pBuk1AzGexMn0MIh6kKwNFTz6XdCcsfYf1rl7OYuUkEIcuDCJvy1Ug4nWQQGWfzUB8Gfz21KXidRArlxevAiTTQIaET6Trjv25CmS1cESg7jYyDaTeK7x7HMsYEHHYl6Ujl2odIBkGUtDtFfZ938tVIMuDwieRxjMOZLcwc0YOZAzInQKQ3lVWVvTIAVwAycBo3svCaF65OleBLI1cG2StOeNA7hOOnJW6jAERb6il1lsY0nB0M0AyDaRCGEWq3p+rQNaJgzGKMw5E3O/xlmUMyBWH+HmQBQDJBSBXhXu1+2q6chPIWeF0gt5amHEg24QPd6hVQ5kCskS4g7jsXQ+QXABSuyjynUsObshNINXCyqoMb8w4kA7xbX3kvUwBMZ4UD0KKAJILQLouCR8K0hJ/UE/4TLotQAp2C7cn8nYbGQfSVvmmMHOOZgzIUvENYKTJNiAJf+7J/AViur2/4ki4YBojP2VlC5B/Fm+tqJVmHohxUJg5Uk9LpoCYbiPvLbUNSKJDqwJh+HZeASkWR6z2Jjw7VO62H8g6Vbw3WJ0NQMS7ucnK4UwBWTKgiHdW3JcpIMLPJfx4b0vka9OD5/MISOcp0715x3IPyHbhIkgw4DxrA5D9wk2ugl5neaaEHBHvEKG9nSkgez3J3YOvKXJIq9JamEdAho6LX5GuHc85II2XTHd3v2zYAMT8vQuetzMF5Lx4F3Hd9VKSQCosTkq4K7w+kkD9W8I35g2vziMgxmHxRjWyVJprQIreDKa6hzU7INuCwqGPHtyaISBLnOKbgOS+khQQj9Xvjy+M/GYqWU5we9RDqrAZ3Z9PQBpNn5vTE8ww24E0m75F0VvfYguQnZXi9lUars2QkFLTN0xplWeTAmL10GCesMi15xKclIkcctN70cgnIKabK4ZWAn9xDgHZuStg+p7AQL9hCxBjk+nOP73t1ncw6pL4ikLxBpqTi/piRzJAlludVKVwVdIfF321MA8CB/MLyJVF5m+R1XcdyxUgnVG+Bzrg7LIJSF+N6dY/XsdVaz9bWxQcTGZau0ybkGCv+3wmgAwKF7/UeOexuk4Ks0A6n19AQrPLtAbqWn1dnJ2ydAOJc3Gy2K1F+fbwfsMmIOZDtJAQeTDxTvjQ+iK/6klq8FbHiPkjvgHXrthnexemCmSD8L0ncceoDgobcMVdnmdAyqPd/8nrXxdr0ElXuoHo7aW1Ub8Lq3x9pRTltfkqu2wD0tJtfl+Xvc6tcT8aMq/ukDMYgh1IbnRj6ZtRbl2qti+Nday+NFUgO04GxMvDMXey9ohn17RXjDwDYlRLepQl43N1L/2KuN62dSwfXBG5es8eSGiD5ao8tL488sD72Eu7nIGAefMRVFwrDduAGCUuJYoQqaYi+oiDgo2FFesGpN7JWZokkK6e3mh3fdAc45v2CcMkW5atXHihXUkRiFEhzlefO8a1jU1+8YtZXHV5B8Q4oUW977Iq+XuerKjeXjfZnsOl961ob3X5hH0eaaBptkBCq4GqBhfVXKjYNDWx9f2DK9zB3ui3/lSbDRuBGGVR9vGCsk86113x1uqzYavsgg3L+w9ddPgl7dpuWZJAjG0uPdofrGjyovqDC6u3Tc6bO6sXDq47OexXNGHVTQLIPvF+FEHvomi7reW7dPGJ6goj/4A0DURfFWVdCng8st81kbpZU72KLn6XXjBg8fYicYFMTczn2Tw1MdUTmpQc/UY6alWfrUBajqvR543Xoww767urVqxaV9VdVdPjaJU8qqSEzaBkgRilqhxrQageT3Bi3vj1zR41IJmXQzJAjKWmv0nxdp8X9lzLi529uukawMo8BGIUnopzn+bp70SMsb6m8imJqEDCJybHfjUB96uGrUCMzoFYX4MgK16fpmk+deIfXslEOmkgLSc8ce6xFX85JAWkq8a0NycHpJrmq9duNzS0uvqgO2BeK6x+0nmOAQkdiqV8k7T0AknUO8NJ7gLPHohROJLiPUiTBmKcrUz9KxeSAWIU+qMscMnjcjirXgxVMzCsa1Ge4XPOy08gRr8s3QhAvMn6SAcQo24kYBMQY1+lxxYgxt5oZ2aCuuQNTBZ9D9frLzTyFIhR7PLmPpDepH2kBYhRtyhgExCjqd4j2wHEWONLejqK3G/kLRDjLUdvjgORNWeJkRUgRp1bswmIcWCdptsBxFgTSHI6UjBdPm5IIEZtvUfPZSBS4MUmI0tAjGfrU1htA6ndBqVMDsg2ADEG9aR2GtTWTUZeAzF27PKrtgBpPJX8CiCrw0dTualImoAYXffJAZuAGNsvpbIRSRqIcXjY+m6Wrl3aYOQ5kNCeRKU36Tev0fqk19tjblVOloe+LrWP6aQLiGEsd2rJnciQR5tTnFRj8ykt2dOKcsPVpKfz3m6fteUt97qOpPPDlDcqEGPnppPJEJF1ydO6K/mpvDLsUxXrk9FV5eLyFP+i9AEx9jc7klht5YDXmfrdDVY/59f0JBaEounOFD6pMrTpUq9XTsxD6k7vXSVvWCCGsay6Mqh6rSwaWdKk1vqlKb2xj1WPO4K9qpXVTfaprVtSX9PSCMQwrgwOq9Z2tCTVVbVp2WymteHgiKTq1t4/tKDj8vnUbq29rL9ejrtllAOq//j6NN8y7wYGYhgFdQedUuyhHpMbDkUKqJJ7S8Wzqc+4ru27Lo6ovVEuQIdvoLxqsL55NvdrSysQw+hsvuTtleKvt7rk87XfP/u33KajVX7PxKiSOBsOyevTFlUevLo29ckMvXWhPTA5iijq/JcurSlJ+zp2QwOZWKu2DdYMyx7NrERWvKqn1+8YOHG0rnO2k2m5fXlzt/tcaEKBKBMKeHytju7SkiWz+1PSCyT0lvvSkXa/1huLteLTXO4Ly9OzBgzV9u92t3pDSuQow+Q0T/Ccu2rN1a/snPX6en6w3uEPeNSAV5nOG/r1Squ7qrRwfwZWsLQCebU1oIQ1+qJhS53VpUX1bpckSd7pJElR/O76E2uWnu9I33TaNmwqG68aaJWU6xOamFLrQPfBpdsaZ2893UBC9W0vO+6WQ2/e6sQIrKkkb2Di/+ntx8vOp/V7RLoK9x5Z0XNOiZw98nBP9+XS6sK2tE2nafvCwaLuevdkjvb6FePN/SsbM7RypRXIlYFhR1itqwzbOnago2R5ccV0/cu3j3UcyMi3yLSd7Xx2+/qj16a0/vzqzvL0LPtMAJnYDz2wOvQGcrHG2X5t4TgvVRaV7Vld/noGZk/Lss6xbTOzZ+tbGxY0LduZieXQtW+qA8daMrlipRXIzttXPxvW6iaDsg7kWhubphbO6rG1O5nZ2QFCOQyEAAIQAghACCAAAQhACCAAIYAAhAACEAIIQAggBBCAEEBuNCBujxSWp55ZAhCaaceLJ+vDOvkKswQgFFaBEHMEIEQAIQIIEUCIAEJEACECCBFAiABCBBAigBABhAggRAAhAggRAYQIIEQAIQIIEUCIAEIEECKAEAGEiABCBBAigBABhAggRAAhAggRQIgAQgQQIgIIEUCIAEIEECKAEAGECCBEACECCBEBhAggRAAhAggRQIgAQgQQIoAQAYQIIEQEECKAEAGECCBEACECCBFAiABCBBAigDALiABCBBAigBABhAggRAAhAggRQIgAQkQAIQIIEUCIAEIEECKAEAGECCBEACECCBEBhAggRAAhAggRQIgAQgQQIoAQAYSIAEIEECKAEAGECCBEACECCBFAiABCBBAiAggRQIgAQgQQIoAQAYQIIEQAIQIIEQGECCBEACECCBFAiABCBBAigBABhAggRAQQIoAQAYQIIEQAIQIIEUCIAEIEECICCBFAiABCBBAigBABhAggRAAhAggRQIgIIEQAIQIIEUCIAEIEECKAEAGECCBEAGEWEAGECCBEACECCBFAiABCBBAigBABhIgAQgQQIoAQAYQIIEQAIQIIEUCIAEIEECICCBFAiABCBBAigBABhAggRAAhAggRAYQIIEQAIQIIEUCIAEIEECKAEAGECCBEBBAigBABhAggRAAhAggRQIgAQgQQIgIIEUCIAEIEECKAEAGECCBEACECCBFAiAggRAAhAggRQIgAQgQQIoAQAYQIIEQEECKAEKXa/xdgAP5wuK+3BuVrAAAAAElFTkSuQmCC;" vertex="1" parent="14">
          <mxGeometry x="860" y="305.2" width="80" height="80" as="geometry" />
        </mxCell>
        <mxCell id="jBB3iKR9src9GKSUZVXM-1030" value="" style="shape=image;verticalLabelPosition=bottom;labelBackgroundColor=#ffffff;verticalAlign=top;aspect=fixed;imageAspect=0;image=data:image/jpeg,/9j/4AAQSkZJRgABAQAAAQABAAD/2wCEAAkGBxEQEhEQEA8VEBAQEA4XDxAQEhUVDxUVFhIWFxURFRgYHSkhGBolGxMZIzEhJSkrMDouFx81ODMsNygtLisBCgoKDQ0OFxAQGy4iGyU3LS8vLjctLjA0LS0uLTArNS0rLS03Ky83LS0uKysrLS0tKystNy0xLi03Ky04Ky0uK//AABEIALUBFwMBIgACEQEDEQH/xAAbAAEAAgMBAQAAAAAAAAAAAAAAAQUCBAYDB//EAEgQAAIBAwEEBQUKCwgDAAAAAAABAgMEERIFBiExEyJBUXEUU2GBkTIzQlKSoaKz0dIHFRYXYnJzscHh8CM0VGN0gqOyNUNE/8QAGgEBAAIDAQAAAAAAAAAAAAAAAAEEAwUGAv/EACkRAQABAwMCBAcBAAAAAAAAAAABAgMRBBMxUpEFFCFREhUygaGx4XH/2gAMAwEAAhEDEQA/APtIAAAAAAAAAAAAAAAANS62jSpPTOaT7sNv14XA8fx3b+c+jL7D3FquYzES8TdoicTMLEFd+PLfzn0ZfYPx5b+c+jL7Cdm50z2RvW+qO6xBXfjy3879GX2D8eW/nfoz+wbNzpnsb1vqjusQVv49t/O/Rn9hp1d8LGLcZXGJReGujqc/kkxYuzxTPY3bfVHdfA5/8tdn/wCI/wCKr90flrs//E/8VX7pPlr3RPaU7tHvDoAV+y9t211noKym4848YyS79MkngsDHVTVTOKoxL1ExPrAADykAAAAAAAAAAAAAAAAAAAAAAAAAAAAAfP6k3JuUnlttt+lmBJB0MOekIZJDJQhkMlkMlAcZtaWK9X9dnZnF7Y9/q/rsyW+WS1zLxyQYRZmWqZyyTDf3euZUrmhODw+lprxUpKMk/Rhn3I+D7J9/oft6H1kT7wzS+LRHx0Sv6PiQAGoXAAAAAAAAAAAAAAAAAAAAAAAAAAAAAB89IJIOic8EMkhhCGQyWQyUBxm1/fqv67OzOM2o81qv67Mlvlkt8tQInALMQyy29k+/0P29D6yJ94Z8H2T7/Q/b0PrIn3hmm8W+qj7ruj4qAAahdAAAAAAAAAAAAAAAAAAAAAAAAAAAAAHz0gkg6JzwQySGEIZDJZBKHnXqqEZTfKKb/kcTOTbbfNtt+LZb7d2gp/2cHmKfWa5N93gioLFunEZZqIxCMEGRBniHps7J9/oft6H1kT7wz4TsaDlcW6XN16P/AHR92ZpPFvqo+69o+KgAGoXQAAAAAAAAAAAAAAAAAAAAAAAAAAAAB82V7S87D5cftI8tpedh8uP2nISgeZ0028NHtxLs/LKXnYfLj9pDvaXnYfLj9pxoJ2zbh1Vfa1GPw9T7oLP8imv9sTqZjHqQfPHun4v+BXYIMlNuIIoiEYGDIxM0QlDIJZB6HQ7g2fS3tJ9lJTqS/wBqwvpSR9gON/Bpsl0qMriaxK4xozzVOPJ+t5fgkdkc14jdi5enHEejZ6aj4aP9AAUVgAAAAAAAAAAAAAAAAAAAAAAAAAAAAAfCTCUTMhnXYy0zywDNoxIwZQQZEHuEIZiZMxZKEMvt0N3ZXtXMk1b02ull3/5a9L+Zeo3N29y61y1OsnQoc+KxVmu6KfJel/OfT7Gzp0IRpUoKEILEYr97736TW6zX00RNFuc1fr+rVjTzVOauHrCKikksJJJJcklySMgDQNiAAAAAAAAAAAAAAAAAAAAAAAAAAAAAAAA4nbu4rqVJVLepGCm25U6mdKb5uLSfD0YKz831z52j7Z/cPpILlOvv0xERLBOntzOcPm35vbnz1H2z+4R+by589R9s/uH0oHr5jqPf8I8tbfNH+Dy589R9tT7g/N3c+eo+2f3T6WB8x1Hv+Dy1twNr+Djzt1w7qUMP2yf8DpNk7rWls1KFLVNf+yp15+KzwXqSLoGG5q71z0qqe6bNFPEAAK7KAAAAAAAAAAAAAAAAAAAAAAAAAAAAAAAAAAAAAAAAAAAAAAAAAAAAAAAAAAAAAAAAAAAVu0tu21s8VqyjL4izKfrUctes098tsu0oZg8Varcab+LwzKfqXztFfu7ujT0Ktdx6WtUWpxm24xzx63xpd+f5gWdpvZZ1XpVfS3y6SMoL2tY+cuyi2julaVotKkqMvgzpLS14rk/WW1jaRo04UoZ004pR1Nt+tge4PC6vaVLHS1YU88uknGOfDLM6NaM1qhOM4vlKDUo+1AegMatSMU5SkoxXOUmlFeLZ42t/Rq5VKtTqNc1TnGTXsYGwAa0No0HPo1Xpup8RVIufhjOQPW5rwpxc6klCEVmUnyXiY2tzCrFVKc1OEs4lHk8PD+dFVvXWjKzudMlLEFnS08dZc8GG439yo+NX62QF8DVjtKg5dGq9N1M40KpHXnuxnJtAAc5v9WlC0coSlCXS0uMW4vm+1D8k44zG9u4vsfT5/gB0YOWs7+4tLina3VTp6VfKt7hrE9XxJ9/FpdvNce7ob2+pUI6q1WNOPY5tLPoS7fUBsArLHeC0ry0UriMpvlHjFvw1JZ9Ro7f3kp29SjSjVhqdaHlGeOiljjnHJvKA6EGlY7WoV1OVGtGcaeNbXBRym+OfBmpPemyUtLuoZ9GXH5SWPnAuAY0qkZJSjJSjJJxlF5i0+TTXMqd7dpTtradWn7vMYxbWVFyeNXs+fAFxgHM0d01KKlVu7mdVpOU41sLLXwVh8DcqXENn276a5lVkukdN1pZqTeMxprv7ALoFDsHeSjXhRhOvB3NSK1U0mnrxlpL1FtaXtOtr6Oan0c3GeM8JLnFgbANe6vadJwjUmourNRpp560njEV7Sby7p0YudWcacF8KTws9y736APWc0k22kkstt4SXe2ITUkpRaknyaeU/Smjn9p7ctri2uoUa8Zy8nr9XipNKDy0pJZ9R4UqFGey6Ma9V0aTpUdVSPNdZYXJ82B1IPKm4xgnq6kYLryfwUvdNv0dpWLeiyctHlUM+vT8rGPnAuAQnniuKfJrkAOI/CXBryWeMwi6qfj1Hj1qL9h21KopxjOLzGSTi1yaaymam2dmQuqUqM+CfGMlzjJcpL+u1nH2t7fbM/sqlB3Fum9Eo5wl+jJJ6V+jJAb99szasqtSVK7jGnKpN04ubyouT0r3HcVuyNsXVKvcxr1umVtb15SinmDnHSlxwnzePae9ffC6rpwtLOUZvhr4za9KSikvFllu7uz0VCtGu81rqElVecuKafVT7Xl5b7/ACp3Z3fjfRnd3c5VJVJyUUpNcubbXHnwSWEsGNzbPZV5RdGcnQuGlKEnnhqUZJ9+NSafPs8Wzdo3GytVCvbyqUtTdOpDlx56XjDTxnHBo9LejX2nc0q9Sk6NtQacVLPHD1YWUtTbSy1wwvaEXlKW0r+pbzm429tr6sf0Woya/Scnz7kZ7y7rU7al5TaynTnRcW+u3wylqTfFNZ/eZ7XtLixu5XtCm61KrnpYRzlasak8cUm1lS/p6+1NuV9ox8mtrWcYzceknJ8MJ5w3jEVlc/QBO3dv1a1raQg9NS71Kq1wy4z6NxXcpS4+HAsluHbqnpUp9MlwrauGrv08sZ7OfpPLbu60/JreNu9Va0Txjg56nqm457dSyl4nlDfK4lHoo2U/Kmscnp1ctTjjK8PnAp9iwcbLaal7pdCpeKlLJncbRnT2daUKctLryuNcs46sarWnPYm5LPoRGwKcpWe0opOU30PBLMm9Us8uZuy3fqXGzrfTBqvRlXapyWmTjKpLMePJ8E0BXX1pYRh0Fuqt1dY4VKWdGrw5OPgn4nb7qxuVbxjdRaqRbUXKSc3D4OrHb2epHM7P3mdvT6Gns5wuMYajFpSl8aSxqfh851uwatxOjGV1CMKr7I8Hjscl8GXo/dyAqvwif3N/taX72dLHkvBHO7/wBKU7RqMXJ9LS4RTb5vsQ/K6GMRtLqcuxKjj+IHhv7ys8e78rp6O/8ArOktNvXdnTdPypRnJNulBw6SeXwzGKT9pWWNhcXdxC7u6fQ06GfJ7dvM8/Hn3cUn2clw4cfHaNSVptCV1VozqUalGMYVKcdTptYyvRyfyvEDQ3rv6NSFKdK1q0alOvScK06HRxxx6urxSePQW29lOPlOzuqutcvVwXHjDn3ldvRf1b2lHobeqqFOrTlOdSDjKbzpShHm0tTbZa750qidrcU6bqq2r6qkILMtLxxS/wBvzgXdz0NOnN1FCFLS+kbSUcPhh+3HrOfjtOxlB06VnUq0mmv7G0bg/BtL2mvvDdPaFrPyalVfQ1aM5wnBxc44nmMfjY4NpG7T3o6SKp21rWdZrEYSp6aUHjHXlyUUBj+D2bdpjLxGtVUc80uDx7ZMvdo2MLinOjUWYTWHjmuOU16U1kpdw7edO2lCpFxlG4rJ5TWcaVlZ7OBa7X2g7eCqKjOstSUo0lmaTT62O1cF7QKKNttGyWKUo3tCHKnPq11FdkX28PH0I2LradK8sLirCOHGjXUozS1QmocV864h74UmsQt7idTspqi089zeeB47I2LWVpdxqJQrXnTy6PPCLnFqMX6/3gWO6tGPkttLRHV0UOtpWfaaG4//ANv+trGO622lGFC0qUK0K0FoadN6OGes32LBq2F5LZ1a6p16NR0q1aVSlVpwcovV2P1Y9jA3N8Pfdnf62n/2geW0KKutpwo1VqpW9u6nRv3MpNri12+6j8k1Nr3VW6r2NWNvUhb07qilKpFqcpOcW56eyCUeb7yw29Rq291Tv6dKVaHRuncQprM1HOVJLt7Pk+kDY3t2VSna1pdHGM6VOUoTjFKS0rLWV2NZWPSVG1P/AAsP2dv9bE2dr7dd3Qq0bW3rScqc+knUp6IQilmSz2yaWEl3njtKhN7HhBQk59Hb9RRev3yOeHMD23pbqLZ9plqFzOHS4eG4wUOr9LPikdBPZFu6fROhT6PGNKglj0p80/TzKreHZtWpStq1BZr2rpzhB/CWI6oePVXsZg9746cRtLh18cKLpP3Xc33enHqAbj1JKFe3lJyVrcVKcG+enPBe1P2g2t0tmVKFKcq3v1epKpVS+C5co/13kAXgAAZAAAAABkACp3mt7mdF+SVHCpF5aWE5x+KpP3L9hz8t6b5w6JWE1XxjXpnpzy1aNP8AHB2wAodzdjStKLVT32rLVNJ508MRjntfN+LL4ABkAABkAAAAAAADIAAAAMgABkAAAAAyAAAyAAAAAAAAAAAAAAAAAAAAAAAAAAAAAAAAAAAAAAAAAAAAAAAAAAAAH//Z;" vertex="1" parent="14">
          <mxGeometry x="835" y="391.66" width="130" height="84.34" as="geometry" />
        </mxCell>
        <mxCell id="jBB3iKR9src9GKSUZVXM-1031" value="" style="edgeStyle=orthogonalEdgeStyle;fontSize=12;html=1;endArrow=blockThin;endFill=1;rounded=0;strokeWidth=2;endSize=4;startSize=4;dashed=0;strokeColor=#4284F3;exitX=1;exitY=0.25;exitDx=0;exitDy=0;entryX=0;entryY=0.5;entryDx=0;entryDy=0;" edge="1" parent="14" source="jBB3iKR9src9GKSUZVXM-1024" target="jBB3iKR9src9GKSUZVXM-1027">
          <mxGeometry width="100" relative="1" as="geometry">
            <mxPoint x="700" y="360.43000000000006" as="sourcePoint" />
            <mxPoint x="815.06" y="361.05999999999995" as="targetPoint" />
            <Array as="points">
              <mxPoint x="740" y="368" />
              <mxPoint x="740" y="345" />
            </Array>
          </mxGeometry>
        </mxCell>
        <mxCell id="jBB3iKR9src9GKSUZVXM-1032" value="" style="edgeStyle=orthogonalEdgeStyle;fontSize=12;html=1;endArrow=blockThin;endFill=1;rounded=0;strokeWidth=2;endSize=4;startSize=4;dashed=0;strokeColor=#4284F3;exitX=1;exitY=0.75;exitDx=0;exitDy=0;" edge="1" parent="14" source="jBB3iKR9src9GKSUZVXM-1024" target="jBB3iKR9src9GKSUZVXM-1030">
          <mxGeometry width="100" relative="1" as="geometry">
            <mxPoint x="664.94" y="208.10000000000002" as="sourcePoint" />
            <mxPoint x="780" y="208.7299999999999" as="targetPoint" />
            <Array as="points">
              <mxPoint x="740" y="403" />
              <mxPoint x="740" y="434" />
            </Array>
          </mxGeometry>
        </mxCell>
        <mxCell id="818" value="Better Data for T9A" style="fillColor=#4DA1F5;strokeColor=none;shadow=1;gradientColor=none;fontSize=14;align=left;spacingLeft=50;fontColor=#ffffff;html=1;" parent="1" vertex="1">
          <mxGeometry x="165" y="40" width="650" height="40" as="geometry" />
        </mxCell>
      </root>
    </mxGraphModel>
  </diagram>
</mxfile>
